<?xml version="1.0" encoding="UTF-8" standalone="no"?>
<!DOCTYPE svg PUBLIC "-//W3C//DTD SVG 1.1//EN" "http://www.w3.org/Graphics/SVG/1.1/DTD/svg11.dtd">
<svg width="100%" height="100%" viewBox="0 0 263 58" version="1.1" xmlns="http://www.w3.org/2000/svg" xmlns:xlink="http://www.w3.org/1999/xlink" xml:space="preserve" xmlns:serif="http://www.serif.com/" style="fill-rule:evenodd;clip-rule:evenodd;stroke-linejoin:round;stroke-miterlimit:2;">
    <g transform="matrix(0.24,0,0,0.24,-28.6472,-138.903)">
        <g transform="matrix(0.665476,0,0,0.665476,118.253,28.3817)">
            <g transform="matrix(164.621,0,0,164.621,283.904,1100.31)">
                <path d="M0.534,0.017C0.517,0.017 0.501,0.016 0.488,0.014C0.474,0.012 0.46,0.01 0.448,0.009C0.435,0.007 0.421,0.006 0.407,0.007C0.392,0.007 0.375,0.01 0.356,0.015L0.361,-0.02C0.375,-0.026 0.391,-0.031 0.409,-0.036C0.426,-0.041 0.444,-0.045 0.462,-0.048C0.48,-0.051 0.497,-0.054 0.513,-0.056C0.529,-0.057 0.542,-0.058 0.553,-0.058C0.559,-0.058 0.563,-0.054 0.565,-0.047C0.567,-0.039 0.567,-0.03 0.565,-0.021C0.563,-0.011 0.559,-0.002 0.554,0.006C0.549,0.013 0.542,0.017 0.534,0.017ZM-0.131,0.017C-0.14,0.017 -0.147,0.013 -0.151,0.006C-0.155,-0.002 -0.156,-0.011 -0.154,-0.021C-0.152,-0.03 -0.147,-0.039 -0.139,-0.047C-0.131,-0.054 -0.12,-0.058 -0.106,-0.058C-0.09,-0.058 -0.07,-0.066 -0.046,-0.082C-0.021,-0.097 0.005,-0.119 0.034,-0.146C0.062,-0.173 0.09,-0.205 0.119,-0.241C0.147,-0.276 0.173,-0.314 0.197,-0.355C0.221,-0.396 0.241,-0.437 0.256,-0.478L0.258,-0.483C0.263,-0.496 0.268,-0.505 0.275,-0.509C0.281,-0.513 0.29,-0.515 0.303,-0.515C0.324,-0.515 0.337,-0.512 0.343,-0.506C0.348,-0.499 0.349,-0.489 0.344,-0.476L0.282,-0.287C0.321,-0.342 0.357,-0.387 0.389,-0.421C0.421,-0.455 0.451,-0.48 0.479,-0.496C0.507,-0.511 0.534,-0.519 0.561,-0.519C0.594,-0.519 0.621,-0.508 0.64,-0.486C0.659,-0.464 0.669,-0.433 0.669,-0.393C0.669,-0.356 0.663,-0.318 0.651,-0.279C0.639,-0.24 0.622,-0.203 0.601,-0.168C0.579,-0.133 0.554,-0.101 0.525,-0.074C0.496,-0.046 0.464,-0.024 0.429,-0.008C0.394,0.009 0.358,0.017 0.321,0.017C0.296,0.017 0.274,0.013 0.254,0.005C0.233,-0.003 0.214,-0.013 0.197,-0.026L0.084,0.322C0.067,0.373 0.051,0.413 0.035,0.442C0.018,0.471 0.001,0.491 -0.018,0.502C-0.037,0.513 -0.057,0.519 -0.08,0.519C-0.093,0.519 -0.106,0.516 -0.121,0.51C-0.135,0.504 -0.147,0.494 -0.157,0.479C-0.167,0.464 -0.172,0.444 -0.172,0.418C-0.172,0.401 -0.169,0.383 -0.163,0.363C-0.157,0.342 -0.148,0.32 -0.137,0.295C-0.125,0.27 -0.11,0.244 -0.093,0.216C-0.076,0.188 -0.056,0.158 -0.034,0.127C-0.011,0.095 0.013,0.062 0.04,0.028C0.067,-0.007 0.095,-0.042 0.126,-0.079L0.166,-0.201C0.143,-0.168 0.118,-0.139 0.093,-0.112C0.068,-0.085 0.042,-0.062 0.017,-0.043C-0.008,-0.024 -0.034,-0.009 -0.059,0.002C-0.084,0.012 -0.108,0.017 -0.131,0.017ZM-0.087,0.421C-0.087,0.429 -0.086,0.435 -0.083,0.439C-0.08,0.442 -0.075,0.444 -0.069,0.444C-0.064,0.444 -0.06,0.442 -0.055,0.439C-0.05,0.435 -0.046,0.428 -0.041,0.418C-0.036,0.408 -0.029,0.394 -0.022,0.375C-0.015,0.356 -0.006,0.33 0.004,0.299L0.076,0.077C0.059,0.103 0.043,0.128 0.028,0.153C0.012,0.177 -0.001,0.2 -0.014,0.222C-0.026,0.244 -0.037,0.265 -0.046,0.285C-0.055,0.304 -0.062,0.322 -0.068,0.339C-0.074,0.356 -0.079,0.371 -0.082,0.385C-0.085,0.398 -0.087,0.41 -0.087,0.421ZM0.226,-0.097C0.242,-0.085 0.258,-0.076 0.275,-0.07C0.292,-0.064 0.309,-0.061 0.327,-0.061C0.355,-0.061 0.382,-0.068 0.407,-0.082C0.432,-0.096 0.456,-0.115 0.477,-0.138C0.498,-0.161 0.516,-0.186 0.531,-0.214C0.546,-0.242 0.558,-0.271 0.567,-0.3C0.575,-0.329 0.579,-0.356 0.579,-0.381C0.579,-0.4 0.575,-0.415 0.568,-0.425C0.56,-0.434 0.548,-0.439 0.533,-0.439C0.522,-0.439 0.509,-0.436 0.497,-0.429C0.484,-0.422 0.469,-0.411 0.452,-0.396C0.435,-0.38 0.416,-0.359 0.395,-0.333C0.373,-0.306 0.348,-0.274 0.321,-0.235C0.293,-0.196 0.261,-0.15 0.226,-0.097Z" style="fill:rgb(249,110,67);fill-rule:nonzero;"/>
            </g>
            <g transform="matrix(164.621,0,0,164.621,399.303,1100.31)">
                <path d="M-0.167,0.017C-0.18,0.017 -0.188,0.013 -0.193,0.006C-0.197,-0.002 -0.198,-0.011 -0.196,-0.021C-0.193,-0.03 -0.188,-0.039 -0.18,-0.047C-0.172,-0.054 -0.162,-0.058 -0.149,-0.058C-0.137,-0.058 -0.122,-0.065 -0.105,-0.078C-0.087,-0.091 -0.065,-0.112 -0.039,-0.141C-0.013,-0.169 0.018,-0.208 0.055,-0.255C0.092,-0.302 0.135,-0.36 0.185,-0.429C0.193,-0.44 0.202,-0.444 0.211,-0.442C0.22,-0.44 0.226,-0.434 0.23,-0.425C0.233,-0.416 0.231,-0.405 0.223,-0.394C0.168,-0.314 0.121,-0.248 0.081,-0.195C0.04,-0.141 0.005,-0.099 -0.025,-0.069C-0.054,-0.038 -0.08,-0.016 -0.103,-0.003C-0.126,0.011 -0.147,0.017 -0.167,0.017Z" style="fill:rgb(249,110,67);fill-rule:nonzero;"/>
            </g>
            <g transform="matrix(164.621,0,0,164.621,399.303,1100.31)">
            </g>
            <g transform="matrix(164.621,0,0,164.621,399.303,1100.31)">
            </g>
            <g transform="matrix(164.621,0,0,164.621,399.303,1100.31)">
                <path d="M0.509,0.017C0.48,0.017 0.458,0.012 0.444,0.001C0.429,-0.011 0.42,-0.025 0.417,-0.042C0.414,-0.059 0.414,-0.077 0.417,-0.096C0.42,-0.115 0.425,-0.132 0.43,-0.148L0.498,-0.344C0.504,-0.361 0.508,-0.377 0.51,-0.392C0.511,-0.406 0.509,-0.417 0.503,-0.426C0.496,-0.435 0.484,-0.439 0.465,-0.439C0.442,-0.439 0.417,-0.429 0.39,-0.409C0.362,-0.389 0.333,-0.361 0.304,-0.325C0.275,-0.289 0.246,-0.247 0.218,-0.198C0.189,-0.149 0.163,-0.095 0.139,-0.036L0.134,-0.126C0.159,-0.188 0.186,-0.243 0.215,-0.292C0.244,-0.34 0.274,-0.381 0.305,-0.415C0.336,-0.449 0.368,-0.475 0.401,-0.493C0.433,-0.51 0.465,-0.519 0.498,-0.519C0.529,-0.519 0.553,-0.511 0.57,-0.497C0.587,-0.482 0.596,-0.459 0.598,-0.43C0.599,-0.401 0.593,-0.364 0.578,-0.321L0.519,-0.149C0.507,-0.114 0.502,-0.091 0.503,-0.078C0.503,-0.065 0.512,-0.058 0.528,-0.058C0.537,-0.058 0.544,-0.054 0.549,-0.047C0.553,-0.039 0.555,-0.03 0.554,-0.021C0.553,-0.011 0.548,-0.002 0.541,0.006C0.534,0.013 0.523,0.017 0.509,0.017ZM0.084,0.015C0.073,0.015 0.063,0.013 0.054,0.008C0.045,0.003 0.042,-0.005 0.046,-0.018L0.3,-0.796C0.325,-0.874 0.352,-0.931 0.383,-0.966C0.413,-1.001 0.449,-1.019 0.492,-1.019C0.514,-1.019 0.533,-1.014 0.549,-1.004C0.564,-0.994 0.577,-0.98 0.586,-0.963C0.595,-0.945 0.599,-0.925 0.599,-0.902C0.599,-0.884 0.596,-0.865 0.591,-0.845C0.586,-0.824 0.578,-0.803 0.569,-0.781C0.559,-0.758 0.547,-0.735 0.533,-0.711C0.518,-0.686 0.501,-0.662 0.483,-0.637C0.464,-0.612 0.443,-0.586 0.42,-0.561C0.397,-0.535 0.373,-0.509 0.346,-0.483C0.319,-0.456 0.29,-0.43 0.259,-0.403L0.131,-0.011C0.128,-0.002 0.124,0.004 0.117,0.009C0.11,0.013 0.099,0.015 0.084,0.015ZM0.296,-0.516C0.317,-0.538 0.337,-0.56 0.357,-0.583C0.376,-0.606 0.393,-0.628 0.41,-0.651C0.426,-0.674 0.441,-0.696 0.454,-0.718C0.467,-0.739 0.478,-0.76 0.488,-0.781C0.497,-0.802 0.503,-0.822 0.509,-0.841C0.514,-0.86 0.516,-0.877 0.516,-0.894C0.516,-0.903 0.515,-0.911 0.512,-0.918C0.509,-0.925 0.505,-0.93 0.5,-0.934C0.495,-0.937 0.488,-0.939 0.48,-0.939C0.469,-0.939 0.459,-0.935 0.449,-0.926C0.439,-0.917 0.429,-0.9 0.418,-0.876C0.407,-0.852 0.395,-0.818 0.38,-0.773L0.296,-0.516Z" style="fill:rgb(249,110,67);fill-rule:nonzero;"/>
            </g>
            <g transform="matrix(164.621,0,0,164.621,510.587,1100.31)">
                <path d="M-0.167,0.017C-0.176,0.017 -0.183,0.013 -0.188,0.006C-0.193,-0.002 -0.195,-0.011 -0.194,-0.021C-0.193,-0.03 -0.188,-0.039 -0.181,-0.047C-0.174,-0.054 -0.163,-0.058 -0.149,-0.058C-0.132,-0.058 -0.113,-0.064 -0.094,-0.077C-0.075,-0.09 -0.055,-0.107 -0.035,-0.13C-0.014,-0.153 0.007,-0.179 0.028,-0.21C0.049,-0.241 0.071,-0.274 0.093,-0.31C0.098,-0.319 0.106,-0.322 0.115,-0.321C0.124,-0.32 0.132,-0.316 0.138,-0.309C0.144,-0.302 0.144,-0.294 0.139,-0.285C0.11,-0.235 0.083,-0.191 0.058,-0.153C0.032,-0.115 0.007,-0.084 -0.018,-0.059C-0.042,-0.034 -0.066,-0.015 -0.091,-0.002C-0.115,0.011 -0.14,0.017 -0.167,0.017Z" style="fill:rgb(249,110,67);fill-rule:nonzero;"/>
            </g>
            <g transform="matrix(164.621,0,0,164.621,510.587,1100.31)">
            </g>
            <g transform="matrix(164.621,0,0,164.621,510.587,1100.31)">
            </g>
            <g transform="matrix(164.621,0,0,164.621,510.587,1100.31)">
                <path d="M0.254,0.019C0.213,0.019 0.178,0.011 0.149,-0.006C0.12,-0.023 0.099,-0.046 0.085,-0.076C0.07,-0.105 0.063,-0.139 0.063,-0.176C0.063,-0.211 0.069,-0.249 0.082,-0.289C0.095,-0.328 0.114,-0.366 0.139,-0.401C0.164,-0.436 0.195,-0.464 0.233,-0.486C0.27,-0.508 0.314,-0.519 0.364,-0.519C0.405,-0.519 0.44,-0.511 0.469,-0.496C0.497,-0.48 0.518,-0.458 0.533,-0.43C0.547,-0.401 0.554,-0.368 0.554,-0.331C0.554,-0.304 0.55,-0.275 0.543,-0.244C0.535,-0.212 0.523,-0.181 0.508,-0.15C0.492,-0.119 0.472,-0.09 0.448,-0.065C0.424,-0.04 0.396,-0.019 0.364,-0.004C0.331,0.011 0.295,0.019 0.254,0.019ZM0.264,-0.061C0.297,-0.061 0.325,-0.07 0.35,-0.087C0.375,-0.104 0.395,-0.127 0.412,-0.154C0.429,-0.181 0.441,-0.209 0.45,-0.239C0.459,-0.268 0.463,-0.296 0.463,-0.321C0.463,-0.347 0.459,-0.369 0.45,-0.386C0.441,-0.403 0.429,-0.417 0.413,-0.426C0.397,-0.435 0.378,-0.439 0.356,-0.439C0.323,-0.439 0.293,-0.431 0.268,-0.414C0.243,-0.397 0.222,-0.375 0.205,-0.348C0.188,-0.321 0.175,-0.293 0.166,-0.264C0.157,-0.235 0.153,-0.208 0.153,-0.183C0.153,-0.157 0.158,-0.135 0.167,-0.117C0.175,-0.098 0.188,-0.084 0.205,-0.075C0.222,-0.066 0.241,-0.061 0.264,-0.061Z" style="fill:rgb(249,110,67);fill-rule:nonzero;"/>
            </g>
            <g transform="matrix(164.621,0,0,164.621,609.688,1100.31)">
                <path d="M-0.006,-0.408C-0.033,-0.408 -0.058,-0.411 -0.083,-0.417C-0.107,-0.423 -0.132,-0.43 -0.157,-0.439C-0.166,-0.442 -0.172,-0.448 -0.175,-0.455C-0.178,-0.462 -0.178,-0.47 -0.177,-0.478C-0.176,-0.485 -0.172,-0.492 -0.167,-0.497C-0.161,-0.501 -0.154,-0.503 -0.146,-0.501C-0.125,-0.496 -0.102,-0.49 -0.078,-0.485C-0.054,-0.479 -0.03,-0.476 -0.006,-0.476C0.023,-0.476 0.053,-0.48 0.083,-0.489C0.113,-0.498 0.142,-0.511 0.17,-0.528C0.197,-0.545 0.222,-0.567 0.243,-0.594C0.25,-0.603 0.258,-0.605 0.266,-0.602C0.273,-0.598 0.279,-0.592 0.282,-0.583C0.285,-0.574 0.284,-0.565 0.278,-0.558C0.249,-0.522 0.219,-0.493 0.187,-0.471C0.155,-0.449 0.123,-0.433 0.09,-0.423C0.057,-0.413 0.025,-0.408 -0.006,-0.408Z" style="fill:rgb(249,110,67);fill-rule:nonzero;"/>
            </g>
            <g transform="matrix(164.621,0,0,164.621,609.524,1100.31)">
            </g>
            <g transform="matrix(164.621,0,0,164.621,609.524,1100.31)">
            </g>
            <g transform="matrix(164.621,0,0,164.621,609.524,1100.31)">
                <path d="M0.216,0.017C0.185,0.017 0.159,0.01 0.14,-0.005C0.12,-0.019 0.106,-0.038 0.097,-0.062C0.088,-0.085 0.085,-0.112 0.086,-0.141C0.087,-0.17 0.093,-0.2 0.103,-0.23L0.258,-0.698C0.262,-0.711 0.267,-0.72 0.274,-0.724C0.28,-0.728 0.29,-0.73 0.303,-0.73C0.324,-0.73 0.337,-0.727 0.343,-0.721C0.348,-0.714 0.349,-0.704 0.344,-0.691L0.28,-0.5L0.406,-0.5C0.413,-0.5 0.419,-0.497 0.422,-0.491C0.424,-0.484 0.424,-0.474 0.42,-0.46C0.417,-0.447 0.412,-0.438 0.405,-0.431C0.398,-0.424 0.391,-0.42 0.384,-0.42L0.254,-0.42L0.188,-0.221C0.179,-0.193 0.174,-0.169 0.173,-0.148C0.172,-0.127 0.173,-0.11 0.179,-0.097C0.184,-0.084 0.191,-0.074 0.201,-0.068C0.211,-0.061 0.222,-0.058 0.235,-0.058C0.244,-0.058 0.251,-0.054 0.256,-0.047C0.261,-0.039 0.262,-0.03 0.261,-0.021C0.26,-0.011 0.255,-0.002 0.248,0.006C0.241,0.013 0.23,0.017 0.216,0.017Z" style="fill:rgb(249,110,67);fill-rule:nonzero;"/>
            </g>
            <g transform="matrix(164.621,0,0,164.621,673.232,1100.31)">
                <path d="M-0.167,0.017C-0.176,0.017 -0.183,0.013 -0.188,0.006C-0.193,-0.002 -0.195,-0.011 -0.194,-0.021C-0.193,-0.03 -0.188,-0.039 -0.181,-0.047C-0.174,-0.054 -0.163,-0.058 -0.149,-0.058C-0.132,-0.058 -0.113,-0.064 -0.094,-0.077C-0.075,-0.09 -0.055,-0.107 -0.035,-0.13C-0.014,-0.153 0.007,-0.179 0.028,-0.21C0.049,-0.241 0.071,-0.274 0.093,-0.31C0.098,-0.319 0.106,-0.322 0.115,-0.321C0.124,-0.32 0.132,-0.316 0.138,-0.309C0.144,-0.302 0.144,-0.294 0.139,-0.285C0.11,-0.235 0.083,-0.191 0.058,-0.153C0.032,-0.115 0.007,-0.084 -0.018,-0.059C-0.042,-0.034 -0.066,-0.015 -0.091,-0.002C-0.115,0.011 -0.14,0.017 -0.167,0.017Z" style="fill:rgb(249,110,67);fill-rule:nonzero;"/>
            </g>
            <g transform="matrix(164.621,0,0,164.621,673.397,1100.31)">
            </g>
            <g transform="matrix(164.621,0,0,164.621,673.397,1100.31)">
            </g>
            <g transform="matrix(164.621,0,0,164.621,673.397,1100.31)">
            </g>
            <g transform="matrix(164.621,0,0,164.621,673.397,1100.31)">
                <path d="M0.254,0.019C0.213,0.019 0.178,0.011 0.149,-0.006C0.12,-0.023 0.099,-0.046 0.085,-0.076C0.07,-0.105 0.063,-0.139 0.063,-0.176C0.063,-0.211 0.069,-0.249 0.082,-0.289C0.095,-0.328 0.114,-0.366 0.139,-0.401C0.164,-0.436 0.195,-0.464 0.233,-0.486C0.27,-0.508 0.314,-0.519 0.364,-0.519C0.405,-0.519 0.44,-0.511 0.469,-0.496C0.497,-0.48 0.518,-0.458 0.533,-0.43C0.547,-0.401 0.554,-0.368 0.554,-0.331C0.554,-0.304 0.55,-0.275 0.543,-0.244C0.535,-0.212 0.523,-0.181 0.508,-0.15C0.492,-0.119 0.472,-0.09 0.448,-0.065C0.424,-0.04 0.396,-0.019 0.364,-0.004C0.331,0.011 0.295,0.019 0.254,0.019ZM0.264,-0.061C0.297,-0.061 0.325,-0.07 0.35,-0.087C0.375,-0.104 0.395,-0.127 0.412,-0.154C0.429,-0.181 0.441,-0.209 0.45,-0.239C0.459,-0.268 0.463,-0.296 0.463,-0.321C0.463,-0.347 0.459,-0.369 0.45,-0.386C0.441,-0.403 0.429,-0.417 0.413,-0.426C0.397,-0.435 0.378,-0.439 0.356,-0.439C0.323,-0.439 0.293,-0.431 0.268,-0.414C0.243,-0.397 0.222,-0.375 0.205,-0.348C0.188,-0.321 0.175,-0.293 0.166,-0.264C0.157,-0.235 0.153,-0.208 0.153,-0.183C0.153,-0.157 0.158,-0.135 0.167,-0.117C0.175,-0.098 0.188,-0.084 0.205,-0.075C0.222,-0.066 0.241,-0.061 0.264,-0.061Z" style="fill:rgb(249,110,67);fill-rule:nonzero;"/>
            </g>
            <g transform="matrix(164.621,0,0,164.621,772.498,1100.31)">
                <path d="M0.035,-0.378C-0.008,-0.378 -0.044,-0.383 -0.073,-0.393C-0.102,-0.403 -0.133,-0.417 -0.164,-0.436C-0.174,-0.443 -0.18,-0.45 -0.181,-0.459C-0.182,-0.468 -0.179,-0.476 -0.174,-0.483C-0.169,-0.49 -0.162,-0.494 -0.154,-0.497C-0.146,-0.5 -0.138,-0.499 -0.131,-0.494C-0.114,-0.483 -0.096,-0.474 -0.079,-0.467C-0.062,-0.46 -0.042,-0.454 -0.02,-0.451C0.002,-0.448 0.029,-0.446 0.06,-0.446C0.078,-0.446 0.099,-0.448 0.123,-0.451C0.146,-0.454 0.171,-0.459 0.196,-0.466C0.221,-0.472 0.243,-0.482 0.264,-0.493C0.273,-0.498 0.28,-0.497 0.285,-0.49C0.29,-0.483 0.293,-0.475 0.293,-0.466C0.293,-0.456 0.289,-0.449 0.28,-0.444C0.231,-0.417 0.184,-0.4 0.141,-0.391C0.097,-0.382 0.062,-0.378 0.035,-0.378Z" style="fill:rgb(249,110,67);fill-rule:nonzero;"/>
            </g>
            <g transform="matrix(164.621,0,0,164.621,772.334,1100.31)">
            </g>
            <g transform="matrix(164.621,0,0,164.621,772.334,1100.31)">
            </g>
            <g transform="matrix(164.621,0,0,164.621,772.334,1100.31)">
                <path d="M0.104,0.519C0.069,0.519 0.04,0.509 0.018,0.49C-0.005,0.47 -0.016,0.444 -0.016,0.413C-0.016,0.39 -0.012,0.367 -0.003,0.344C0.007,0.321 0.02,0.297 0.037,0.274C0.054,0.251 0.076,0.227 0.103,0.203C0.129,0.178 0.159,0.153 0.194,0.126C0.211,0.113 0.228,0.101 0.244,0.09C0.259,0.079 0.275,0.067 0.291,0.057C0.307,0.046 0.324,0.034 0.341,0.023L0.401,-0.163C0.372,-0.122 0.344,-0.089 0.316,-0.062C0.287,-0.035 0.26,-0.016 0.234,-0.003C0.208,0.011 0.183,0.017 0.16,0.017C0.137,0.017 0.118,0.011 0.101,-0.001C0.084,-0.013 0.071,-0.03 0.062,-0.052C0.053,-0.074 0.048,-0.1 0.048,-0.13C0.048,-0.161 0.053,-0.194 0.062,-0.229C0.071,-0.264 0.085,-0.299 0.104,-0.333C0.123,-0.367 0.145,-0.398 0.172,-0.426C0.199,-0.454 0.23,-0.476 0.265,-0.494C0.3,-0.511 0.338,-0.519 0.38,-0.519C0.393,-0.519 0.407,-0.518 0.421,-0.516C0.435,-0.513 0.449,-0.51 0.464,-0.505C0.479,-0.5 0.493,-0.495 0.506,-0.488L0.509,-0.494C0.512,-0.502 0.517,-0.507 0.524,-0.511C0.531,-0.514 0.539,-0.515 0.55,-0.515C0.571,-0.515 0.584,-0.512 0.59,-0.506C0.595,-0.499 0.596,-0.489 0.591,-0.476L0.354,0.25C0.338,0.298 0.322,0.339 0.305,0.373C0.288,0.407 0.27,0.435 0.251,0.457C0.232,0.478 0.21,0.494 0.186,0.504C0.161,0.514 0.134,0.519 0.104,0.519ZM0.119,0.442C0.139,0.442 0.158,0.435 0.175,0.422C0.192,0.409 0.209,0.388 0.225,0.359C0.24,0.329 0.255,0.292 0.269,0.246L0.306,0.133C0.297,0.139 0.287,0.145 0.278,0.152C0.269,0.159 0.259,0.165 0.25,0.172C0.241,0.179 0.231,0.186 0.222,0.193C0.195,0.214 0.172,0.235 0.154,0.254C0.134,0.273 0.119,0.291 0.108,0.308C0.096,0.325 0.087,0.341 0.082,0.356C0.076,0.371 0.073,0.385 0.073,0.399C0.073,0.407 0.075,0.414 0.078,0.421C0.081,0.428 0.087,0.433 0.094,0.437C0.1,0.44 0.109,0.442 0.119,0.442ZM0.189,-0.063C0.212,-0.063 0.239,-0.075 0.27,-0.1C0.3,-0.124 0.332,-0.159 0.367,-0.206C0.401,-0.253 0.436,-0.31 0.471,-0.378L0.484,-0.418C0.461,-0.427 0.44,-0.433 0.421,-0.436C0.401,-0.439 0.383,-0.44 0.366,-0.44C0.337,-0.44 0.311,-0.433 0.288,-0.42C0.264,-0.407 0.243,-0.389 0.225,-0.368C0.206,-0.346 0.191,-0.322 0.178,-0.296C0.165,-0.269 0.156,-0.243 0.149,-0.217C0.142,-0.191 0.139,-0.167 0.139,-0.146C0.139,-0.129 0.141,-0.115 0.145,-0.102C0.149,-0.089 0.155,-0.08 0.163,-0.073C0.17,-0.066 0.179,-0.063 0.189,-0.063Z" style="fill:rgb(249,110,67);fill-rule:nonzero;"/>
            </g>
            <g transform="matrix(164.621,0,0,164.621,876.868,1100.31)">
                <path d="M-0.237,0.076C-0.25,0.083 -0.26,0.085 -0.268,0.081C-0.276,0.077 -0.281,0.07 -0.284,0.061C-0.287,0.052 -0.287,0.042 -0.284,0.032C-0.281,0.021 -0.275,0.014 -0.266,0.009C-0.213,-0.022 -0.165,-0.051 -0.124,-0.08C-0.082,-0.108 -0.045,-0.136 -0.014,-0.164C0.018,-0.192 0.046,-0.221 0.071,-0.251C0.096,-0.281 0.118,-0.313 0.137,-0.347C0.156,-0.38 0.173,-0.417 0.188,-0.456C0.191,-0.465 0.197,-0.47 0.206,-0.471C0.214,-0.472 0.222,-0.471 0.231,-0.467C0.24,-0.463 0.247,-0.457 0.252,-0.45C0.257,-0.442 0.257,-0.433 0.253,-0.424C0.232,-0.374 0.209,-0.328 0.182,-0.285C0.155,-0.242 0.123,-0.201 0.085,-0.162C0.047,-0.123 0.002,-0.085 -0.051,-0.046C-0.103,-0.007 -0.165,0.033 -0.237,0.076Z" style="fill:rgb(249,110,67);fill-rule:nonzero;"/>
            </g>
            <g transform="matrix(164.621,0,0,164.621,876.868,1100.31)">
            </g>
            <g transform="matrix(164.621,0,0,164.621,876.868,1100.31)">
            </g>
            <g transform="matrix(164.621,0,0,164.621,876.868,1100.31)">
                <path d="M0.4,0.017C0.371,0.017 0.349,0.012 0.335,0.001C0.321,-0.01 0.312,-0.023 0.308,-0.04C0.304,-0.057 0.304,-0.074 0.307,-0.092C0.31,-0.109 0.313,-0.125 0.318,-0.138C0.321,-0.146 0.326,-0.159 0.333,-0.177C0.34,-0.195 0.349,-0.216 0.358,-0.239C0.367,-0.262 0.377,-0.285 0.386,-0.309C0.395,-0.333 0.402,-0.355 0.408,-0.375C0.413,-0.395 0.415,-0.409 0.412,-0.417C0.409,-0.424 0.4,-0.428 0.386,-0.428C0.371,-0.428 0.354,-0.425 0.337,-0.419C0.32,-0.412 0.302,-0.406 0.283,-0.4C0.264,-0.393 0.245,-0.39 0.224,-0.39C0.212,-0.39 0.202,-0.395 0.193,-0.405C0.184,-0.415 0.178,-0.428 0.173,-0.444C0.168,-0.459 0.165,-0.476 0.165,-0.493C0.165,-0.507 0.167,-0.52 0.172,-0.533C0.177,-0.545 0.184,-0.555 0.195,-0.563C0.205,-0.571 0.218,-0.575 0.234,-0.575C0.247,-0.575 0.258,-0.571 0.266,-0.562C0.274,-0.553 0.278,-0.542 0.278,-0.529C0.278,-0.52 0.277,-0.511 0.275,-0.501C0.272,-0.49 0.267,-0.48 0.26,-0.469C0.266,-0.469 0.275,-0.471 0.287,-0.476C0.298,-0.48 0.312,-0.485 0.328,-0.491C0.343,-0.497 0.36,-0.502 0.378,-0.507C0.395,-0.511 0.413,-0.513 0.43,-0.513C0.451,-0.513 0.467,-0.508 0.48,-0.498C0.492,-0.488 0.499,-0.473 0.502,-0.453C0.505,-0.432 0.502,-0.406 0.493,-0.373C0.488,-0.354 0.482,-0.333 0.473,-0.309C0.464,-0.284 0.454,-0.26 0.445,-0.236C0.435,-0.211 0.426,-0.189 0.419,-0.17C0.411,-0.15 0.406,-0.135 0.403,-0.126C0.397,-0.106 0.394,-0.09 0.395,-0.077C0.396,-0.064 0.404,-0.058 0.419,-0.058C0.428,-0.058 0.435,-0.054 0.44,-0.047C0.444,-0.039 0.446,-0.03 0.445,-0.021C0.444,-0.011 0.439,-0.002 0.432,0.006C0.425,0.013 0.414,0.017 0.4,0.017Z" style="fill:rgb(249,110,67);fill-rule:nonzero;"/>
            </g>
            <g transform="matrix(164.621,0,0,164.621,970.208,1100.31)">
                <path d="M-0.167,0.017C-0.176,0.017 -0.183,0.013 -0.188,0.006C-0.193,-0.002 -0.195,-0.011 -0.194,-0.021C-0.193,-0.03 -0.188,-0.039 -0.181,-0.047C-0.174,-0.054 -0.163,-0.058 -0.149,-0.058C-0.132,-0.058 -0.113,-0.064 -0.094,-0.077C-0.075,-0.09 -0.055,-0.107 -0.035,-0.13C-0.014,-0.153 0.007,-0.179 0.028,-0.21C0.049,-0.241 0.071,-0.274 0.093,-0.31C0.098,-0.319 0.106,-0.322 0.115,-0.321C0.124,-0.32 0.132,-0.316 0.138,-0.309C0.144,-0.302 0.144,-0.294 0.139,-0.285C0.11,-0.235 0.083,-0.191 0.058,-0.153C0.032,-0.115 0.007,-0.084 -0.018,-0.059C-0.042,-0.034 -0.066,-0.015 -0.091,-0.002C-0.115,0.011 -0.14,0.017 -0.167,0.017Z" style="fill:rgb(249,110,67);fill-rule:nonzero;"/>
            </g>
            <g transform="matrix(164.621,0,0,164.621,970.372,1100.31)">
            </g>
            <g transform="matrix(164.621,0,0,164.621,970.372,1100.31)">
            </g>
            <g transform="matrix(164.621,0,0,164.621,970.372,1100.31)">
                <path d="M0.16,0.017C0.137,0.017 0.118,0.011 0.101,-0.001C0.084,-0.013 0.071,-0.03 0.062,-0.052C0.053,-0.074 0.048,-0.1 0.048,-0.13C0.048,-0.161 0.053,-0.194 0.062,-0.229C0.071,-0.264 0.085,-0.299 0.104,-0.333C0.123,-0.367 0.145,-0.398 0.172,-0.426C0.199,-0.454 0.23,-0.476 0.265,-0.494C0.3,-0.511 0.338,-0.519 0.38,-0.519C0.405,-0.519 0.433,-0.515 0.462,-0.506C0.491,-0.497 0.518,-0.484 0.541,-0.468L0.523,-0.399C0.49,-0.416 0.461,-0.428 0.436,-0.433C0.411,-0.438 0.387,-0.44 0.366,-0.44C0.337,-0.44 0.311,-0.433 0.288,-0.42C0.264,-0.407 0.243,-0.389 0.225,-0.368C0.206,-0.346 0.191,-0.322 0.178,-0.296C0.165,-0.269 0.156,-0.243 0.149,-0.217C0.142,-0.191 0.139,-0.167 0.139,-0.146C0.139,-0.129 0.141,-0.115 0.145,-0.102C0.149,-0.089 0.155,-0.08 0.163,-0.073C0.17,-0.066 0.179,-0.063 0.189,-0.063C0.214,-0.063 0.242,-0.077 0.273,-0.104C0.304,-0.131 0.338,-0.17 0.374,-0.223C0.409,-0.276 0.446,-0.34 0.483,-0.415L0.52,-0.378C0.477,-0.289 0.434,-0.215 0.392,-0.157C0.349,-0.098 0.309,-0.055 0.27,-0.026C0.231,0.003 0.195,0.017 0.16,0.017ZM0.468,0.017C0.438,0.017 0.416,0.012 0.402,0.001C0.387,-0.011 0.378,-0.025 0.375,-0.042C0.371,-0.059 0.371,-0.077 0.374,-0.096C0.377,-0.115 0.382,-0.132 0.388,-0.148L0.5,-0.483C0.505,-0.496 0.51,-0.505 0.517,-0.509C0.523,-0.513 0.532,-0.515 0.545,-0.515C0.566,-0.515 0.579,-0.512 0.585,-0.506C0.59,-0.499 0.591,-0.489 0.586,-0.476L0.476,-0.149C0.465,-0.114 0.46,-0.091 0.461,-0.078C0.462,-0.065 0.47,-0.058 0.485,-0.058C0.494,-0.058 0.501,-0.054 0.506,-0.047C0.511,-0.039 0.513,-0.03 0.512,-0.021C0.511,-0.011 0.507,-0.002 0.5,0.006C0.493,0.013 0.482,0.017 0.468,0.017Z" style="fill:rgb(249,110,67);fill-rule:nonzero;"/>
            </g>
            <g transform="matrix(164.621,0,0,164.621,1074.91,1100.31)">
                <path d="M-0.167,0.017C-0.176,0.017 -0.183,0.013 -0.188,0.006C-0.193,-0.002 -0.195,-0.011 -0.194,-0.021C-0.193,-0.03 -0.188,-0.039 -0.181,-0.047C-0.174,-0.054 -0.163,-0.058 -0.149,-0.058C-0.133,-0.058 -0.115,-0.066 -0.095,-0.082C-0.074,-0.098 -0.05,-0.123 -0.023,-0.158C0.004,-0.192 0.037,-0.237 0.074,-0.293C0.111,-0.348 0.155,-0.416 0.205,-0.495C0.211,-0.504 0.219,-0.508 0.229,-0.507C0.238,-0.506 0.246,-0.501 0.252,-0.494C0.258,-0.487 0.258,-0.479 0.253,-0.47C0.196,-0.374 0.148,-0.295 0.107,-0.232C0.066,-0.169 0.03,-0.119 -0.001,-0.083C-0.032,-0.046 -0.06,-0.021 -0.087,-0.006C-0.113,0.01 -0.14,0.017 -0.167,0.017Z" style="fill:rgb(249,110,67);fill-rule:nonzero;"/>
            </g>
            <g transform="matrix(164.621,0,0,164.621,1074.91,1100.31)">
            </g>
            <g transform="matrix(164.621,0,0,164.621,1074.91,1100.31)">
            </g>
            <g transform="matrix(164.621,0,0,164.621,1074.91,1100.31)">
                <path d="M0.466,0.017C0.449,0.017 0.433,0.016 0.42,0.014C0.406,0.012 0.393,0.01 0.38,0.009C0.367,0.007 0.354,0.006 0.34,0.007C0.325,0.007 0.308,0.01 0.289,0.015L0.294,-0.02C0.308,-0.026 0.324,-0.031 0.342,-0.036C0.359,-0.041 0.377,-0.045 0.395,-0.048C0.413,-0.051 0.43,-0.054 0.446,-0.056C0.461,-0.057 0.474,-0.058 0.485,-0.058C0.491,-0.058 0.495,-0.054 0.497,-0.047C0.499,-0.039 0.499,-0.03 0.497,-0.021C0.495,-0.011 0.491,-0.002 0.486,0.006C0.481,0.013 0.474,0.017 0.466,0.017ZM-0.148,0.519C-0.161,0.519 -0.174,0.516 -0.189,0.51C-0.203,0.504 -0.215,0.494 -0.225,0.479C-0.235,0.464 -0.24,0.444 -0.24,0.418C-0.24,0.401 -0.237,0.383 -0.231,0.363C-0.225,0.342 -0.216,0.32 -0.205,0.295C-0.193,0.27 -0.178,0.244 -0.161,0.216C-0.144,0.188 -0.124,0.158 -0.102,0.127C-0.079,0.095 -0.055,0.062 -0.028,0.028C-0.001,-0.007 0.027,-0.042 0.058,-0.079L0.19,-0.483C0.195,-0.496 0.2,-0.505 0.207,-0.509C0.213,-0.513 0.222,-0.515 0.235,-0.515C0.256,-0.515 0.269,-0.512 0.275,-0.506C0.28,-0.499 0.281,-0.489 0.276,-0.476L0.214,-0.287C0.253,-0.342 0.289,-0.387 0.321,-0.421C0.353,-0.455 0.383,-0.48 0.411,-0.496C0.439,-0.511 0.466,-0.519 0.493,-0.519C0.526,-0.519 0.553,-0.508 0.572,-0.486C0.591,-0.464 0.601,-0.433 0.601,-0.393C0.601,-0.356 0.595,-0.318 0.583,-0.279C0.571,-0.24 0.554,-0.203 0.533,-0.168C0.511,-0.133 0.486,-0.101 0.457,-0.074C0.428,-0.046 0.396,-0.024 0.361,-0.008C0.326,0.009 0.29,0.017 0.253,0.017C0.228,0.017 0.206,0.013 0.186,0.005C0.165,-0.003 0.146,-0.013 0.129,-0.026L0.016,0.322C-0.001,0.373 -0.017,0.413 -0.034,0.442C-0.05,0.471 -0.067,0.491 -0.086,0.502C-0.105,0.513 -0.125,0.519 -0.148,0.519ZM-0.155,0.421C-0.155,0.429 -0.154,0.435 -0.151,0.439C-0.148,0.442 -0.143,0.444 -0.137,0.444C-0.132,0.444 -0.128,0.442 -0.123,0.439C-0.118,0.435 -0.114,0.428 -0.109,0.418C-0.103,0.408 -0.097,0.394 -0.09,0.375C-0.083,0.356 -0.074,0.33 -0.064,0.299L0.008,0.077C-0.009,0.103 -0.026,0.128 -0.041,0.153C-0.056,0.177 -0.069,0.2 -0.082,0.222C-0.094,0.244 -0.105,0.265 -0.114,0.285C-0.123,0.304 -0.13,0.322 -0.136,0.339C-0.142,0.356 -0.147,0.371 -0.15,0.385C-0.153,0.398 -0.155,0.41 -0.155,0.421ZM0.158,-0.097C0.174,-0.085 0.19,-0.076 0.207,-0.07C0.224,-0.064 0.241,-0.061 0.259,-0.061C0.287,-0.061 0.314,-0.068 0.339,-0.082C0.364,-0.096 0.388,-0.115 0.409,-0.138C0.43,-0.161 0.448,-0.186 0.463,-0.214C0.478,-0.242 0.49,-0.271 0.499,-0.3C0.507,-0.329 0.511,-0.356 0.511,-0.381C0.511,-0.4 0.507,-0.415 0.5,-0.425C0.492,-0.434 0.48,-0.439 0.465,-0.439C0.454,-0.439 0.442,-0.436 0.429,-0.429C0.416,-0.422 0.401,-0.411 0.384,-0.396C0.367,-0.38 0.348,-0.359 0.327,-0.333C0.305,-0.306 0.28,-0.274 0.253,-0.235C0.225,-0.196 0.193,-0.15 0.158,-0.097Z" style="fill:rgb(249,110,67);fill-rule:nonzero;"/>
            </g>
            <g transform="matrix(164.621,0,0,164.621,1179.28,1100.31)">
                <path d="M-0.167,0.017C-0.18,0.017 -0.188,0.013 -0.193,0.006C-0.197,-0.002 -0.198,-0.011 -0.196,-0.021C-0.193,-0.03 -0.188,-0.039 -0.18,-0.047C-0.172,-0.054 -0.162,-0.058 -0.149,-0.058C-0.137,-0.058 -0.122,-0.065 -0.105,-0.078C-0.087,-0.091 -0.065,-0.112 -0.039,-0.141C-0.013,-0.169 0.018,-0.208 0.055,-0.255C0.092,-0.302 0.135,-0.36 0.185,-0.429C0.193,-0.44 0.202,-0.444 0.211,-0.442C0.22,-0.44 0.226,-0.434 0.23,-0.425C0.233,-0.416 0.231,-0.405 0.223,-0.394C0.168,-0.314 0.121,-0.248 0.081,-0.195C0.04,-0.141 0.005,-0.099 -0.025,-0.069C-0.054,-0.038 -0.08,-0.016 -0.103,-0.003C-0.126,0.011 -0.147,0.017 -0.167,0.017Z" style="fill:rgb(249,110,67);fill-rule:nonzero;"/>
            </g>
            <g transform="matrix(164.621,0,0,164.621,1179.28,1100.31)">
            </g>
            <g transform="matrix(164.621,0,0,164.621,1179.28,1100.31)">
            </g>
            <g transform="matrix(164.621,0,0,164.621,1179.28,1100.31)">
                <path d="M0.509,0.017C0.48,0.017 0.458,0.012 0.444,0.001C0.429,-0.011 0.42,-0.025 0.417,-0.042C0.414,-0.059 0.414,-0.077 0.417,-0.096C0.42,-0.115 0.425,-0.132 0.43,-0.148L0.498,-0.344C0.504,-0.361 0.508,-0.377 0.51,-0.392C0.511,-0.406 0.509,-0.417 0.503,-0.426C0.496,-0.435 0.484,-0.439 0.465,-0.439C0.442,-0.439 0.417,-0.429 0.39,-0.409C0.362,-0.389 0.333,-0.361 0.304,-0.325C0.275,-0.289 0.246,-0.247 0.218,-0.198C0.189,-0.149 0.163,-0.095 0.139,-0.036L0.134,-0.126C0.159,-0.188 0.186,-0.243 0.215,-0.292C0.244,-0.34 0.274,-0.381 0.305,-0.415C0.336,-0.449 0.368,-0.475 0.401,-0.493C0.433,-0.51 0.465,-0.519 0.498,-0.519C0.529,-0.519 0.553,-0.511 0.57,-0.497C0.587,-0.482 0.596,-0.459 0.598,-0.43C0.599,-0.401 0.593,-0.364 0.578,-0.321L0.519,-0.149C0.507,-0.114 0.502,-0.091 0.503,-0.078C0.503,-0.065 0.512,-0.058 0.528,-0.058C0.537,-0.058 0.544,-0.054 0.549,-0.047C0.553,-0.039 0.555,-0.03 0.554,-0.021C0.553,-0.011 0.548,-0.002 0.541,0.006C0.534,0.013 0.523,0.017 0.509,0.017ZM0.084,0.015C0.073,0.015 0.063,0.013 0.054,0.008C0.045,0.003 0.042,-0.005 0.046,-0.018L0.3,-0.796C0.325,-0.874 0.352,-0.931 0.383,-0.966C0.413,-1.001 0.449,-1.019 0.492,-1.019C0.514,-1.019 0.533,-1.014 0.549,-1.004C0.564,-0.994 0.577,-0.98 0.586,-0.963C0.595,-0.945 0.599,-0.925 0.599,-0.902C0.599,-0.884 0.596,-0.865 0.591,-0.845C0.586,-0.824 0.578,-0.803 0.569,-0.781C0.559,-0.758 0.547,-0.735 0.533,-0.711C0.518,-0.686 0.501,-0.662 0.483,-0.637C0.464,-0.612 0.443,-0.586 0.42,-0.561C0.397,-0.535 0.373,-0.509 0.346,-0.483C0.319,-0.456 0.29,-0.43 0.259,-0.403L0.131,-0.011C0.128,-0.002 0.124,0.004 0.117,0.009C0.11,0.013 0.099,0.015 0.084,0.015ZM0.296,-0.516C0.317,-0.538 0.337,-0.56 0.357,-0.583C0.376,-0.606 0.393,-0.628 0.41,-0.651C0.426,-0.674 0.441,-0.696 0.454,-0.718C0.467,-0.739 0.478,-0.76 0.488,-0.781C0.497,-0.802 0.503,-0.822 0.509,-0.841C0.514,-0.86 0.516,-0.877 0.516,-0.894C0.516,-0.903 0.515,-0.911 0.512,-0.918C0.509,-0.925 0.505,-0.93 0.5,-0.934C0.495,-0.937 0.488,-0.939 0.48,-0.939C0.469,-0.939 0.459,-0.935 0.449,-0.926C0.439,-0.917 0.429,-0.9 0.418,-0.876C0.407,-0.852 0.395,-0.818 0.38,-0.773L0.296,-0.516Z" style="fill:rgb(249,110,67);fill-rule:nonzero;"/>
            </g>
            <g transform="matrix(164.621,0,0,164.621,1290.56,1100.31)">
                <path d="M-0.167,0.017C-0.176,0.017 -0.183,0.013 -0.188,0.006C-0.193,-0.002 -0.195,-0.011 -0.194,-0.021C-0.193,-0.03 -0.188,-0.039 -0.181,-0.047C-0.174,-0.054 -0.163,-0.058 -0.149,-0.058C-0.133,-0.058 -0.115,-0.066 -0.095,-0.082C-0.074,-0.098 -0.05,-0.123 -0.023,-0.158C0.004,-0.192 0.037,-0.237 0.074,-0.293C0.111,-0.348 0.155,-0.416 0.205,-0.495C0.211,-0.504 0.219,-0.508 0.229,-0.507C0.238,-0.506 0.246,-0.501 0.252,-0.494C0.258,-0.487 0.258,-0.479 0.253,-0.47C0.196,-0.374 0.148,-0.295 0.107,-0.232C0.066,-0.169 0.03,-0.119 -0.001,-0.083C-0.032,-0.046 -0.06,-0.021 -0.087,-0.006C-0.113,0.01 -0.14,0.017 -0.167,0.017Z" style="fill:rgb(249,110,67);fill-rule:nonzero;"/>
            </g>
            <g transform="matrix(164.621,0,0,164.621,1290.56,1100.31)">
            </g>
            <g transform="matrix(164.621,0,0,164.621,1290.56,1100.31)">
            </g>
            <g transform="matrix(164.621,0,0,164.621,1290.56,1100.31)">
                <path d="M0.427,-0.007C0.44,-0.016 0.454,-0.025 0.467,-0.034C0.48,-0.042 0.493,-0.05 0.506,-0.058C0.518,-0.065 0.53,-0.072 0.541,-0.079C0.552,-0.085 0.563,-0.09 0.572,-0.095C0.583,-0.1 0.591,-0.101 0.598,-0.097C0.604,-0.093 0.608,-0.087 0.611,-0.078C0.613,-0.069 0.613,-0.06 0.61,-0.051C0.607,-0.042 0.603,-0.036 0.596,-0.031C0.583,-0.024 0.569,-0.016 0.554,-0.007C0.539,0.003 0.524,0.012 0.509,0.022C0.493,0.031 0.477,0.041 0.462,0.052C0.446,0.062 0.43,0.072 0.414,0.083L0.427,-0.007ZM0.135,0.519C0.1,0.519 0.071,0.509 0.049,0.49C0.026,0.47 0.015,0.444 0.015,0.413C0.015,0.39 0.02,0.367 0.029,0.344C0.038,0.321 0.051,0.297 0.068,0.274C0.085,0.251 0.107,0.227 0.134,0.203C0.16,0.178 0.19,0.153 0.225,0.126C0.242,0.113 0.259,0.101 0.275,0.09C0.29,0.079 0.306,0.067 0.322,0.057C0.338,0.046 0.355,0.034 0.372,0.023L0.441,-0.19C0.42,-0.157 0.399,-0.128 0.378,-0.103C0.356,-0.078 0.334,-0.056 0.311,-0.039C0.288,-0.021 0.266,-0.008 0.243,0.002C0.22,0.011 0.197,0.015 0.174,0.015C0.143,0.015 0.12,0.008 0.103,-0.008C0.086,-0.023 0.076,-0.045 0.075,-0.075C0.074,-0.104 0.08,-0.14 0.094,-0.183L0.194,-0.483C0.199,-0.496 0.204,-0.505 0.211,-0.509C0.217,-0.513 0.226,-0.515 0.239,-0.515C0.26,-0.515 0.273,-0.512 0.279,-0.506C0.284,-0.499 0.285,-0.489 0.28,-0.476L0.174,-0.16C0.168,-0.143 0.164,-0.128 0.163,-0.113C0.161,-0.098 0.163,-0.087 0.17,-0.078C0.176,-0.069 0.188,-0.065 0.206,-0.065C0.229,-0.065 0.255,-0.075 0.282,-0.095C0.309,-0.115 0.337,-0.143 0.367,-0.179C0.396,-0.215 0.424,-0.258 0.452,-0.307C0.48,-0.356 0.506,-0.409 0.53,-0.467L0.535,-0.483C0.54,-0.496 0.545,-0.505 0.552,-0.509C0.558,-0.513 0.567,-0.515 0.58,-0.515C0.601,-0.515 0.614,-0.512 0.62,-0.506C0.625,-0.499 0.626,-0.489 0.621,-0.476L0.385,0.25C0.37,0.298 0.354,0.339 0.337,0.373C0.32,0.407 0.301,0.435 0.282,0.457C0.263,0.478 0.241,0.494 0.217,0.504C0.192,0.514 0.165,0.519 0.135,0.519ZM0.15,0.442C0.17,0.442 0.189,0.435 0.206,0.422C0.223,0.409 0.24,0.388 0.255,0.359C0.27,0.33 0.285,0.293 0.3,0.246L0.337,0.133C0.328,0.139 0.318,0.145 0.309,0.152C0.3,0.159 0.29,0.165 0.281,0.172C0.272,0.179 0.262,0.186 0.253,0.193C0.226,0.215 0.204,0.236 0.185,0.255C0.166,0.274 0.15,0.291 0.139,0.308C0.127,0.325 0.118,0.341 0.113,0.356C0.107,0.371 0.104,0.385 0.104,0.399C0.104,0.407 0.106,0.414 0.109,0.421C0.112,0.428 0.118,0.433 0.125,0.437C0.132,0.44 0.14,0.442 0.15,0.442Z" style="fill:rgb(249,110,67);fill-rule:nonzero;"/>
            </g>
            <g transform="matrix(164.621,0,0,164.621,1290.56,1100.31)">
            </g>
            <g transform="matrix(164.621,0,0,164.621,1400.03,1100.31)">
            </g>
        </g>
        <g transform="matrix(1,0,0,1,-36.2273,-415.502)">
            <g transform="matrix(164.621,0,0,164.621,1257.25,1114.12)">
            </g>
            <text x="159.06px" y="1114.12px" style="font-family:'PlayfairDisplaySC-Bold', 'Playfair Display SC';font-weight:700;font-size:164.621px;">An<tspan x="381.627px 442.702px 539.169px 636.954px " y="1114.12px 1114.12px 1114.12px 1114.12px ">ita </tspan>Coo<tspan x="1039.78px " y="1114.12px ">k</tspan>e</text>
        </g>
    </g>
</svg>
